<?xml version="1.0" encoding="UTF-8"?>
<svg id="Calque_2" data-name="Calque 2" xmlns="http://www.w3.org/2000/svg" viewBox="0 0 122.22 122.69">
  <defs>
    <style>
      .cls-1 {
        fill: #cc484e;
      }

      .cls-2 {
        fill: #713633;
      }
    </style>
  </defs>
  <g id="Calque_1-2" data-name="Calque 1">
    <path class="cls-1" d="M2.44,68.57c2.74-1.56,12.37,2.2,13.77-4.74,3.41-17-20.54-1.52-15.5-20.51,2.9-10.95,13.92-25.29,23.02-31.97,4.65-3.41,25.82-16.11,30.02-9.01,2.46,4.16-3.1,16.59,9.97,13.99,9.16-1.82-2.09-19.67,14.82-15.77,1.12.26,11.56,5.1,13.05,5.94,9.21,5.2,19.75,15.93,24.85,25.15,2.55,4.62,8.57,17.53,4.33,21.72-2.59,2.57-18.56-2.49-14.09,11.03,2.45,7.41,13.03.6,15.11,6.89,2.75,8.34-10.02,28.02-16.01,34.09-4.99,5.06-20.59,15.21-27.24,16.75-16.9,3.91-5.66-13.93-14.82-15.77-16.8-3.37-2.04,20.11-19.51,15.5-14.04-3.7-31.3-18-38.17-30.82-.94-1.75-5.55-12.81-5.72-14.31-.24-2.11.31-7.13,2.14-8.17ZM43.95,29.57c-6.51,1.18-13.57,7.74-14.68,14.32-.89,5.24-.85,29.59,0,34.9,1.27,7.84,9.76,13.91,17.41,14.59,7.25.65,29.59.83,35.54-1.55s10.44-8.67,11.05-14.95c.67-6.91.9-26.47-.11-32.99-.87-5.55-6.61-11.36-11.7-13.3-5-1.91-31.64-2.1-37.51-1.04Z"/>
    <path class="cls-2" d="M43.95,29.57c5.87-1.07,32.5-.87,37.51,1.04,5.09,1.94,10.83,7.75,11.7,13.3,1.02,6.51.79,26.08.11,32.99-.61,6.28-5.16,12.59-11.05,14.95s-28.29,2.19-35.54,1.55c-7.65-.68-16.14-6.75-17.41-14.59-.86-5.31-.89-29.66,0-34.9,1.11-6.58,8.17-13.14,14.68-14.32Z"/>
  </g>
</svg>